<svg width="390" height="99" xmlns="http://www.w3.org/2000/svg"><g fill="#FFF" fill-rule="evenodd"><path d="M40.1001484 63.0717714c-4.3420005-4.6259273-9.2858312-6.9871447-14.7054545-6.9871447-4.6255854 0-8.5894726 1.6534956-11.7719258 4.8768469-3.1761512 3.2458697-4.7862835 7.2991857-4.7862835 12.0409221 0 3.2973404.7058114 6.2858567 2.1174342 8.8400892 1.4147737 2.5896186 3.4345287 4.6162766 6.0025478 6.0767571 2.5554154 1.4476129 5.4605855 2.1971546 8.6052274 2.1971546 2.6783021 0 5.1580949-.5211406 7.3795102-1.5312527 2.1678493-1.013329 4.5814722-2.8630565 7.1526423-5.4462413.2615283.273438 5.6464911 6.0220696 5.936378 6.2987245-3.4628872 3.4260171-6.7839819 5.8354883-9.8687558 7.170509-3.135189 1.3575392-6.7587743 2.0620441-10.754171 2.0620441-7.3889631 0-13.5270014-2.4448573-18.22505856-7.2187628C2.46842731 86.6646442.09261574 80.4656442.09261574 72.9766603c0-4.8414608 1.07762275-9.1939501 3.21711355-12.9545266 2.14894363-3.7412751 5.26207604-6.8198651 9.25117081-9.1199611 4.0080004-2.2807945 8.3752084-3.4324509 12.9755863-3.4324509 3.919774 0 7.7513216.8524831 11.3812088 2.5445817 3.5763211 1.6663633 6.6800007 4.0661837 9.2921331 7.1190384l-6.1096799 5.9384296zm18.9558732 24.5586438c-1.8613514-1.9076177-2.8207124-4.392099-2.8207124-7.4351307 0-2.9545183.9689227-5.4176342 2.8557721-7.3191475 1.9027856-1.9137221 4.309156-2.8782136 7.1617408-2.8782136 2.9035807 0 5.3450109.955335 7.215924 2.8415873 1.8772877 1.8770958 2.8175251 4.3524205 2.8175251 7.3557738 0 2.9911445-.9593609 5.478678-2.88127 7.4015566-1.8932239 1.9198264-4.3155305 2.8812657-7.190426 2.8812657-2.8717083 0-5.2780787-.9614393-7.1585536-2.8476916 0 0 1.8804749 1.8862523 0 0zM54.1341287 66.544922c-3.9276386 3.6625807-5.9192042 8.2666989-5.9192042 13.7213393 0 5.0843023 1.7603466 9.4718668 5.2378792 13.0308785 3.4806154 3.5433193 7.7257947 5.3730404 12.6307187 5.3730404 3.3480499 0 6.4433005-.8254145 9.2179275-2.4511358 2.774627-1.6100291 4.9943286-3.8791344 6.6005294-6.7351314 1.5969519-2.8811046 2.4046767-5.9944552 2.4046767-9.2804209 0-3.267135-.7923102-6.3616548-2.3923451-9.1894056-1.596952-2.8277509-3.838234-5.0968562-6.6930169-6.7382698-2.8486171-1.6476906-5.928453-2.4699666-9.162435-2.4699666-4.4763982 0-8.4903586 1.6006137-11.9247303 4.7390719zM88.3168484 49.51774v49.1524402h8.0203848V49.51774h-8.0203848zm24.8831446 38.1126752c-1.880475-1.9076177-2.827086-4.392099-2.827086-7.4351307 0-2.9545183.95936-5.4176342 2.855772-7.3191475 1.902785-1.9137221 4.305968-2.8782136 7.152179-2.8782136 2.919517 0 5.341823.955335 7.219111 2.8415873 1.867726 1.8770958 2.8239 4.3524205 2.8239 7.3557738 0 2.9911445-.962549 5.478678-2.874896 7.4015566-1.902786 1.9198264-4.331467 2.8812657-7.199988 2.8812657-2.871708 0-5.278078-.9614393-7.148992-2.8476916 0 0 1.870914 1.8862523 0 0zm-4.929278-21.0854932c-3.933133 3.6625807-5.918193 8.2666989-5.918193 13.7213393 0 5.0843023 1.763128 9.4718668 5.233902 13.0308785 3.480021 3.5433193 7.721393 5.3730404 12.637808 5.3730404 3.341314 0 6.432953-.8254145 9.210189-2.4511358 2.761823-1.6100291 4.984228-3.8791344 6.590154-6.7351314 1.602844-2.8811046 2.419678-5.9944552 2.419678-9.2804209 0-3.267135-.807586-6.3616548-2.404266-9.1894056-1.599761-2.8277509-3.843743-5.0968562-6.685709-6.7382698-2.851212-1.6476906-5.930522-2.4699666-9.16087-2.4699666-4.466386 0-8.482743 1.6006137-11.922693 4.7390719zm50.006172-3.7287377c-1.553843.6499603-3.320542 1.8694402-5.260565 3.5908696l-.325365.2992391v-3.9705493h-8.231415v35.9344365h8.231415V84.2906139c0-3.8418443.124673-6.2614983.38314-7.4359315.492608-2.2072908 1.3866-3.9673317 2.654609-5.2222054 1.286253-1.2613091 2.846178-1.8983988 4.640243-1.8983988 1.380519 0 2.560345.3828974 3.515152 1.1486921.930482.7851005 1.611618 1.9177046 1.991717 3.3752887.374017 1.4640194.556464 4.2955294.556464 8.7068934v15.7052278h8.103703V74.8468844c0-4.1056896-.982175-7.2621797-2.92828-9.3311126-2.329244-2.480789-5.187586-3.7099217-8.52029-3.7099217-1.635945 0-3.247563.3378506-4.810528 1.0103342zm24.279483-1.0103342v36.8643301h8.020384V61.8058501h-8.020384zm24.061154 18.3627714c0-2.9567737.942785-5.4217575 2.828355-7.3195234 1.875983-1.9098345 4.272894-2.8511747 7.117229-2.8511747 2.905056 0 5.34671.9141862 7.24826 2.8059179 1.907941 1.8645777 2.857118 4.3265444 2.857118 7.3315919 0 3.0714241-.949177 5.5846817-2.857118 7.4824477-1.90155 1.9007831-4.324028 2.8602259-7.209909 2.8602259-2.809181 0-5.202896-.9865969-7.114033-2.9115169-1.907942-1.92492-2.869902-4.4200749-2.869902-7.3979684 0 0 0 2.9778935 0 0zm-3.25314-13.2062846c-3.16775 3.4554425-4.767245 7.9308839-4.767245 13.3478628 0 5.1815945 1.655728 9.5848514 4.907826 13.0779553 3.29271 3.499381 7.210224 5.2820252 11.686936 5.2820252 1.980624 0 3.858157-.3546458 5.566992-1.089045 1.699464-.7030146 3.420795-1.8956287 5.139003-3.5150732l.340517-.3483688v4.0454726h8.450458V62.7128645h-8.450458v4.2180878l-.349889-.3860303c-1.555759-1.5629522-3.267719-2.7618433-5.092143-3.5621501-1.8213-.787753-3.786304-1.1769218-5.866898-1.1769218-4.523572 0-8.409845 1.7418443-11.565099 5.1564868zM242.709256 49.51774v49.1524402h8.020384V49.51774h-8.020384zm30.076442-2.0480183v51.2004585h22.056059v-8.719038h-13.324945V47.4697217h-8.731114zm52.013863 1.7088396c-1.372358 1.1327535-2.19962 2.7024262-2.433691 4.6539987-.118638.8608926-.208419 3.7089586-.221244 8.4665233v.2265507h-3.241715v7.3208241h3.241715v28.8237221h8.679843V69.8464581h5.739535V62.525634h-5.739535l.022445-4.7996384c0-1.1295171.195593-1.8641886.589986-2.2396155.554715-.4984116 1.385184-.7508538 2.491407-.7508538.791991 0 1.82126.2038957 3.02047.5340124v-6.5473153c-2.273369-.8220554-4.370383-1.2525017-6.182024-1.2525017-2.561948 0-4.575595.5728496-5.967192 1.7088396zm32.35801 20.0246907c2.339068 0 4.431919.5511459 6.205949 1.6371477 1.777187 1.0941468 2.973553 2.5412441 3.579627 4.265272l.082073.2416354h-20.050962l.142048-.2633555c1.016438-1.9086481 2.146514-3.2688653 3.336566-4.0535016 1.922393-1.2027469 4.185702-1.827198 6.704699-1.827198 0 0-2.518997 0 0 0zm-18.203698 11.2262091c0 5.1878714 1.712943 9.5785745 5.095774 13.0340169 3.367454 3.4491656 7.798963 5.2067022 13.193041 5.2067022 3.462788 0 6.488884-.6402455 9.004481-1.8893518 2.457165-1.2239987 4.569897-3.1259044 6.344345-5.6492248-.452069-.2039998-6.765662-3.226335-6.993234-3.3361811-2.352605 2.2973514-5.175731 3.4679963-8.426324 3.4679963-2.770847 0-5.092699-.7563684-6.873298-2.287936-1.774449-1.5158753-2.906159-3.5966731-3.305948-6.157655l-.04613-.2447997h28.059046c.021527-.3232612.039979-1.4907677.039979-1.4907677 0-5.7622093-1.706792-10.479312-5.095774-13.9881082-3.361304-3.5119348-7.795888-5.2883021-13.211493-5.2883021-5.055795 0-9.345839 1.7763673-12.700993 5.2883021-3.370529 3.5087962-5.083472 7.9999299-5.083472 13.3353089zm-36.091732-18.623611v36.8643301h8.020385V61.8058501h-8.020385zm79.326088 30.4378511h.645162c.74703 0 1.354841-.2593328 1.354841-.895231 0-.5612955-.390493-.9307559-1.249577-.9307559-.356537 0-.607811.0319725-.750426.0710501v1.7549368zm-.03056 3.4388235h-1.361632v-6.1280688c.533108-.0710501 1.283533-.1847302 2.247881-.1847302 1.106962 0 1.60951.1847302 2.003398.4831405.356537.2628853.604415.7105007.604415 1.3073213 0 .7495783-.533107 1.2327188-1.212225 1.460079v.0710501c.570459.1882827.852293.6749757 1.035655 1.495604.17657.9343085.319185 1.2682438.424449 1.4956041h-1.426148c-.176571-.2273603-.28523-.7495783-.465196-1.4956041-.101868-.6358981-.461801-.9378609-1.212226-.9378609h-.638371v2.433465zm-3.609513-3.1759383c0 2.7283228 1.962651 4.8917975 4.567069 4.8917975 2.536506.0390776 4.461806-2.1634747 4.461806-4.8562724 0-2.7247703-1.9253-4.9273226-4.533113-4.9273226-2.533111 0-4.495762 2.2025523-4.495762 4.8917975 0 0 0-2.6892452 0 0zm10.533122 0c0 3.435271-2.64177 6.1635938-6.000009 6.1635938-3.354843 0-6.030568-2.7283228-6.030568-6.1635938s2.675725-6.1245162 6.064524-6.1245162c3.324283 0 5.966053 2.6892452 5.966053 6.1245162zM180.551273 40.3047038c0 3.9511175 3.146544 7.1650179 7.014855 7.1650179 3.877257 0 7.020819-3.2139004 7.020819-7.1650179 0-3.9693955-3.143562-7.1711105-7.020819-7.1711105-3.868311 0-7.014855 3.201715-7.014855 7.1711105zm34.091025-1.0270555c3.309799 0 6.010899-4.1417834 6.010899-9.2114737 0-5.0819805-2.7011-9.2206913-6.010899-9.2206913-3.321504 0-6.019678 4.1387108-6.019678 9.2206913 0 5.0696903 2.698174 9.2114737 6.019678 9.2114737zm64.158689-28.6584292c0 5.6355074 2.24793 10.2262642 5.014172 10.2262642 2.760516 0 5.011309-4.5907568 5.011309-10.2262642 0-5.65394408-2.147704-10.25391926-4.905355-10.25391926-2.77197 0-5.120126 4.59997518-5.120126 10.25391926zm-44.112116 5.0950925c0 6.2145667 2.238763 11.2752267 5.006213 11.2752267 2.770714 0 5.019268-5.06066 5.019268-11.2752267 0-6.20503034-2.248554-11.25297508-5.019268-11.25297508-2.76745 0-5.006213 5.04794474-5.006213 11.25297508zm66.168174 21.5168809c0 4.5093121 2.711297 8.1905108 6.02332 8.1905108 3.315235 0 6.007257-3.6811987 6.007257-8.1905108 0-4.528062-2.692022-8.1936359-6.007257-8.1936359-3.312023 0-6.02332 3.6655739-6.02332 8.1936359zm-44.112116-14.3360719c0 7.7646608 2.312531 14.3345094 5.014433 14.3345094 2.725604 0 5.011048-6.5698486 5.011048-14.3345094 0-7.7776128-2.285444-14.33774739-5.011048-14.33774739-2.701902 0-5.014433 6.56013459-5.014433 14.33774739z"/></g></svg>