<svg width="76" height="22" viewBox="0 0 76 22" fill="none" xmlns="http://www.w3.org/2000/svg">
<path fill-rule="evenodd" clip-rule="evenodd" d="M65.8203 14.4363L68.5161 10.5717C69.412 9.12168 68.9432 7.80708 68.0328 7.26748C67.1224 6.72588 65.8578 6.93838 64.9911 8.35288L64.9391 8.43628C64.9516 8.47378 64.9641 8.51338 64.9724 8.55288C64.987 8.61958 64.9953 8.69038 64.9974 8.75918C64.9995 8.89458 64.9766 9.02378 64.9266 9.14878C64.8766 9.27168 64.8057 9.38208 64.712 9.47998C64.6182 9.57588 64.5099 9.65088 64.387 9.70288C64.262 9.75498 64.1328 9.78208 63.9995 9.78418C63.7245 9.78418 63.487 9.68838 63.2932 9.49458C63.0953 9.29878 62.9974 9.06128 62.9974 8.78418C62.9932 8.50708 63.0932 8.27168 63.2932 8.07788C63.4661 7.90708 63.6745 7.81128 63.9161 7.78838C65.2766 5.73628 67.3828 5.64878 68.8161 6.56748C68.9995 6.67788 69.1682 6.80708 69.3266 6.95088C69.4828 7.09668 69.6245 7.25708 69.7495 7.42998C69.8745 7.60288 69.9828 7.78628 70.0703 7.98208C70.1599 8.17588 70.2286 8.37788 70.2766 8.58628C70.3245 8.79458 70.3516 9.00498 70.3578 9.21748C70.3641 9.43208 70.3495 9.64458 70.3141 9.85498C70.2786 10.0654 70.2224 10.2696 70.1453 10.4696C70.0682 10.6696 69.9724 10.8592 69.8578 11.0404L66.8745 15.3092C66.6661 15.6259 66.4016 15.8884 66.0849 16.0967C65.7682 16.305 65.4224 16.4446 65.0495 16.5134C64.4536 23.6675 75.1495 15.6384 71.8286 7.87998C71.412 6.89458 70.8224 6.02788 70.062 5.27588C69.2995 4.53208 68.4307 3.95088 67.4516 3.53208C66.437 3.10708 65.3807 2.89458 64.2807 2.89458C63.1807 2.89458 62.1224 3.10708 61.1078 3.53208C60.1349 3.95088 59.2724 4.53208 58.5182 5.27588C57.7661 6.03208 57.187 6.89878 56.7745 7.87998C56.3391 8.89668 56.1245 9.95918 56.1307 11.0634C56.1245 12.1634 56.3391 13.2175 56.7745 14.2279C57.1849 15.205 57.762 16.0675 58.5099 16.8175C59.2578 17.5696 60.1182 18.1509 61.0953 18.5654C61.4766 18.7509 61.8786 18.8863 62.2953 18.9717C62.4599 19.9988 62.8161 20.955 63.3599 21.8404C62.2391 21.7509 61.1599 21.4863 60.1266 21.0446C58.8057 20.4904 57.637 19.7134 56.6161 18.7113C55.6078 17.6904 54.8286 16.5175 54.2766 15.1946C54.0016 14.5384 53.7953 13.8634 53.6536 13.1675C53.5141 12.4717 53.4453 11.7696 53.4453 11.0592C53.4453 10.3488 53.5141 9.64668 53.6536 8.95088C53.7953 8.25498 54.0016 7.57788 54.2766 6.92378C54.8286 5.60088 55.6099 4.42588 56.6161 3.40288C57.6391 2.40498 58.8078 1.62588 60.1266 1.06958C61.4495 0.511247 62.8286 0.234158 64.2661 0.238328C65.7099 0.234158 67.0974 0.511247 68.4286 1.06958C69.7536 1.62378 70.9307 2.40088 71.9599 3.40288C72.962 4.42788 73.7411 5.60288 74.2974 6.92378C74.4995 7.41538 74.6661 7.91958 74.7953 8.43418C74.9224 8.95088 75.0141 9.47168 75.0641 10.0009C75.1161 10.53 75.1286 11.0613 75.1036 11.5904C75.0766 12.1217 75.012 12.6488 74.9099 13.1696C74.8057 13.6904 74.6641 14.2009 74.487 14.7029C74.3078 15.2029 74.0932 15.6884 73.8432 16.1571C73.5932 16.6259 73.312 17.0759 72.9953 17.5029C72.6786 17.93 72.3349 18.3342 71.9599 18.7113C68.2495 22.3592 63.3599 23.2571 63.2432 16.33C62.6099 16.1009 62.1266 15.6967 61.7911 15.1113L58.8182 10.5904C58.687 10.33 58.5911 10.0571 58.5349 9.77168C58.4766 9.48628 58.4557 9.19878 58.4766 8.90708C58.4974 8.61538 58.5557 8.33418 58.6516 8.05708C58.7474 7.78208 58.8786 7.52588 59.0453 7.28628C59.2099 7.04668 59.4057 6.83208 59.6286 6.64458C59.8536 6.45708 60.0974 6.30288 60.3641 6.18208C60.6286 6.05918 60.9057 5.97588 61.1953 5.92788C61.4828 5.88208 61.7724 5.87378 62.062 5.90498C62.1432 5.82998 62.237 5.77168 62.3391 5.72998C62.4641 5.67588 62.5974 5.64878 62.7349 5.64878C63.0099 5.65088 63.2453 5.74668 63.4432 5.93838C63.5349 6.03208 63.6078 6.14038 63.6578 6.26338C63.7078 6.38418 63.7328 6.51128 63.7328 6.64458C63.7328 6.77588 63.7078 6.90288 63.6578 7.02588C63.6078 7.14668 63.5349 7.25498 63.4432 7.34878C63.2495 7.54878 63.0141 7.64668 62.7349 7.64458C62.5078 7.64458 62.3016 7.57588 62.1203 7.43628C61.9786 7.32378 61.8745 7.18628 61.8057 7.01958C60.1849 7.06958 59.0411 8.85088 60.1266 10.2571L62.9536 14.4946C63.7724 15.7217 65.0057 15.605 65.8578 14.4363H65.8203Z" fill="#0F4C75"/>
<path d="M45.3006 21.8753C45.0381 21.8753 44.7194 21.8753 44.3319 21.8358C43.9298 21.8066 43.5319 21.7399 43.1402 21.6378C42.6964 21.5274 42.261 21.3899 41.8339 21.2233C41.3694 21.0462 40.9339 20.8149 40.5256 20.5316C40.2006 20.2899 39.8964 20.0274 39.611 19.7399C39.2777 19.4024 38.9944 19.0253 38.7589 18.6128C38.4944 18.1378 38.2881 17.6378 38.1444 17.1108C37.9777 16.4691 37.8985 15.8149 37.9069 15.1503H40.7048C40.7048 16.5503 41.1798 17.5795 42.1298 18.2378C43.0923 18.867 44.1506 19.1566 45.3006 19.1066C45.7923 19.1066 46.2756 19.0462 46.7527 18.9274C47.2069 18.8212 47.6298 18.6378 48.0173 18.3774C48.3923 18.1212 48.6964 17.8003 48.9319 17.4108C49.1819 16.9899 49.2985 16.5378 49.286 16.0483C49.2964 15.492 49.136 14.992 48.8006 14.5462C48.461 14.0983 48.0506 13.7295 47.5714 13.4358C47.0319 13.1003 46.4631 12.8233 45.8673 12.6045C45.2214 12.3691 44.5881 12.1524 43.9631 11.9524C43.3298 11.7545 42.7339 11.5566 42.1819 11.3587C41.686 11.192 41.2235 10.9628 40.7923 10.667C40.4298 10.4337 40.1027 10.1587 39.811 9.842C39.5194 9.5253 39.2714 9.1753 39.0714 8.7941C38.8694 8.4128 38.7194 8.0128 38.6214 7.5941C38.5235 7.1753 38.4819 6.7503 38.4923 6.3191C38.4777 5.4253 38.6631 4.5753 39.0506 3.7691C39.4069 3.0295 39.8902 2.3858 40.5027 1.8358C41.1214 1.2858 41.8214 0.871168 42.6027 0.589918C43.4485 0.294088 44.3194 0.148248 45.2152 0.156588C46.1089 0.162838 46.9777 0.319088 47.8173 0.629498C48.5444 0.919088 49.1902 1.3358 49.7548 1.8753C50.2735 2.3545 50.6756 2.9149 50.9631 3.5587C51.2485 4.2024 51.3964 4.8753 51.4048 5.5795H48.6319C48.6214 5.1462 48.5027 4.7441 48.2777 4.3733C48.0652 4.0441 47.7944 3.7733 47.4652 3.5608C47.1194 3.3399 46.7485 3.1795 46.3506 3.0774C45.9569 2.9733 45.5548 2.9191 45.1464 2.9191C44.6339 2.8899 44.1339 2.9566 43.6464 3.117C43.161 3.2774 42.7214 3.5233 42.3277 3.8503C41.9819 4.167 41.7173 4.5399 41.5381 4.9712C41.3569 5.4024 41.2756 5.8524 41.2964 6.3191C41.2694 6.7274 41.3485 7.1149 41.5319 7.4795C41.7173 7.8441 41.9819 8.1378 42.3277 8.3587C43.3673 8.9399 44.4652 9.3816 45.6194 9.6816L47.9006 10.4691C48.6652 10.7399 49.3589 11.1378 49.9819 11.6566C50.3194 11.9128 50.6235 12.2066 50.8902 12.5337C51.1589 12.8628 51.3839 13.217 51.5673 13.5983C51.7485 13.9816 51.8839 14.3795 51.9714 14.7941C52.0589 15.2066 52.0964 15.6253 52.0839 16.0483C52.1027 16.9316 51.9048 17.7628 51.4881 18.542C51.1006 19.2545 50.5881 19.8649 49.9527 20.3733C49.2964 20.8858 48.5694 21.2628 47.7694 21.5024C46.9694 21.7503 46.1485 21.8753 45.311 21.8753H45.3006Z" fill="#0F4C75"/>
<path d="M32.2329 3.40288C33.2579 4.41748 34.0433 5.59038 34.5912 6.92368C35.1475 8.25288 35.4266 9.63828 35.4287 11.0779V20.9675H32.6308V18.0008C32.1412 18.7008 31.56 19.3133 30.887 19.8404C30.2704 20.3216 29.6016 20.7154 28.8829 21.0258C28.185 21.3279 27.462 21.5466 26.7141 21.6821C26.0058 21.8091 25.2933 21.8737 24.5745 21.8758C23.1329 21.88 21.7495 21.6029 20.4204 21.0487C19.1016 20.4987 17.9391 19.7196 16.9287 18.7112C16.4245 18.2112 15.9766 17.6654 15.5808 17.0779C15.185 16.4883 14.8495 15.8654 14.5787 15.2112C14.3058 14.5571 14.1016 13.88 13.962 13.1862C13.8245 12.4904 13.7558 11.7883 13.7579 11.0779C13.7537 9.64038 14.0245 8.25498 14.5704 6.92368C15.1183 5.59038 15.9037 4.41748 16.9287 3.40288C17.9391 2.39658 19.1037 1.61958 20.4204 1.06958C21.0787 0.794531 21.76 0.588281 22.46 0.448701C23.16 0.309121 23.8662 0.238281 24.5808 0.238281C25.2954 0.238281 26.0037 0.309121 26.7037 0.448701C27.4037 0.588281 28.0829 0.794531 28.7433 1.06958C30.06 1.61748 31.2245 2.39458 32.2329 3.40288ZM24.5829 19.1071C25.6704 19.1154 26.7141 18.905 27.712 18.4737C28.6766 18.0675 29.5308 17.4946 30.2725 16.7571C31.012 16.0175 31.587 15.1675 31.9975 14.2029C32.4245 13.205 32.637 12.1633 32.6308 11.0779C32.6308 10.0071 32.4266 8.97788 32.0183 7.98828C31.61 6.99868 31.0287 6.12368 30.2725 5.36328C29.5287 4.62578 28.6745 4.05078 27.712 3.63828C26.712 3.21748 25.6683 3.00708 24.5808 3.00708C23.4954 3.00708 22.4516 3.21748 21.4516 3.63828C20.4891 4.05288 19.635 4.62788 18.8891 5.36328C18.1495 6.10908 17.5745 6.96538 17.1662 7.93408C16.7433 8.94038 16.537 9.98828 16.5475 11.0779C16.5412 12.1633 16.7516 13.205 17.1808 14.2029C17.5891 15.1675 18.1641 16.0175 18.9058 16.7571C19.6475 17.4946 20.4995 18.0675 21.4662 18.4737C22.4662 18.905 23.51 19.1154 24.5975 19.1071H24.5829Z" fill="#0F4C75"/>
<path fill-rule="evenodd" clip-rule="evenodd" d="M0.599479 10.5875C0.920312 21.2438 10.3661 23.302 15.4599 21.0645L15.4244 18.4709C12.3078 19.65 3.53489 19.9584 3.51406 10.9105L3.47656 0.03125H0.570312L0.599479 10.5875Z" fill="#0F4C75"/>
</svg>
